<?xml version="1.0" encoding="utf-8"?>
<!-- Ellipsis icon by Arthur Shlain from Usefulicons.com -->
<svg xmlns="http://www.w3.org/2000/svg" xmlns:xlink="http://www.w3.org/1999/xlink" xml:space="preserve" version="1.1" x="0px" y="0px" viewBox="0 0 100 100" width="400px" height="400px"><path d="M40,50C40,44.475,44.475,40,50,40C55.525,40,60,44.475,60,50C60,55.525,55.525,60,50,60C44.475,60,40,55.525,40,50Z" stroke="none"></path><path d="M10,50C10,44.475,14.475,40,20,40C25.525,40,30,44.475,30,50C30,55.525,25.525,60,20,60C14.475,60,10,55.525,10,50Z" stroke="none"></path><path d="M70,50C70,44.475,74.475,40,80,40C85.525,40,90,44.475,90,50C90,55.525,85.525,60,80,60C74.475,60,70,55.525,70,50Z" stroke="none"></path></svg>